<svg width="28" height="13" viewBox="0 0 28 13" fill="none" xmlns="http://www.w3.org/2000/svg">
<path d="M15 2C16.1046 2 17 2.89543 17 4V9C17 10.1046 16.1046 11 15 11H4C2.89543 11 2 10.1046 2 9V4C2 2.89543 2.89543 2 4 2H15Z" fill="black"/>
<path fill-rule="evenodd" clip-rule="evenodd" d="M21 0C23.2091 4.62576e-07 25 1.79086 25 4V9C25 11.2091 23.2091 13 21 13H4C1.79086 13 1.2776e-07 11.2091 0 9V4C0 1.79086 1.79086 0 4 0H21ZM4 1C2.34315 1 1 2.34315 1 4V9C1 10.6569 2.34315 12 4 12H21C22.6569 12 24 10.6569 24 9V4C24 2.34315 22.6569 1 21 1H4Z" fill="black"/>
<path d="M26 5C26.8491 5.35744 27.4014 6.18912 27.4014 7.11035C27.4013 8.03151 26.849 8.86329 26 9.2207V5Z" fill="black"/>
</svg>
